<svg width="230" height="31" viewBox="0 0 230 31" fill="none" xmlns="http://www.w3.org/2000/svg">
<path d="M14.1794 3.34991C13.8722 9.88192 7.68527 15.1237 0.00748441 15.3337C0.00333964 15.3338 0 15.3367 0 15.3402C0 15.3437 0.00333964 15.3466 0.00748441 15.3467C7.68527 15.5567 13.8722 20.7984 14.1794 27.3303C14.1796 27.3358 14.1848 27.3401 14.1913 27.3401C14.1977 27.3401 14.2029 27.3358 14.2031 27.3303C14.5103 20.7984 20.6973 15.5565 28.3753 15.3467C28.3794 15.3466 28.3826 15.3437 28.3826 15.3402C28.3826 15.3367 28.3794 15.3338 28.3753 15.3337C20.6973 15.1238 14.5103 9.88192 14.2031 3.34991C14.2029 3.34445 14.1977 3.34009 14.1913 3.34009C14.1848 3.34009 14.1796 3.34445 14.1794 3.34991Z" fill="url(#paint0_radial_5_3)"/>
<path d="M54.9 29.7001C52.932 29.7001 51.252 29.3401 49.86 28.6201C48.468 27.9001 47.232 26.8561 46.152 25.4881L48.456 23.1841C49.248 24.2881 50.16 25.1281 51.192 25.7041C52.224 26.2561 53.496 26.5321 55.008 26.5321C56.496 26.5321 57.684 26.2081 58.572 25.5601C59.484 24.9121 59.94 24.0241 59.94 22.8961C59.94 21.9601 59.724 21.2041 59.292 20.6281C58.86 20.0521 58.272 19.5841 57.528 19.2241C56.808 18.8401 56.016 18.5041 55.152 18.2161C54.288 17.9041 53.424 17.5801 52.56 17.2441C51.696 16.8841 50.904 16.4521 50.184 15.9481C49.464 15.4201 48.876 14.7361 48.42 13.8961C47.988 13.0561 47.772 12.0001 47.772 10.7281C47.772 9.31209 48.108 8.11209 48.78 7.12809C49.476 6.12009 50.412 5.35209 51.588 4.82409C52.788 4.27209 54.132 3.99609 55.62 3.99609C57.252 3.99609 58.716 4.32009 60.012 4.96809C61.308 5.59209 62.364 6.42009 63.18 7.45209L60.876 9.75609C60.132 8.89209 59.328 8.24409 58.464 7.81209C57.624 7.38009 56.652 7.16409 55.548 7.16409C54.204 7.16409 53.136 7.46409 52.344 8.06409C51.552 8.64009 51.156 9.45609 51.156 10.5121C51.156 11.3521 51.372 12.0361 51.804 12.5641C52.26 13.0681 52.848 13.5001 53.568 13.8601C54.288 14.2201 55.08 14.5561 55.944 14.8681C56.832 15.1561 57.708 15.4801 58.572 15.8401C59.436 16.2001 60.228 16.6561 60.948 17.2081C61.668 17.7601 62.244 18.4801 62.676 19.3681C63.132 20.2321 63.36 21.3241 63.36 22.6441C63.36 24.8521 62.592 26.5801 61.056 27.8281C59.544 29.0761 57.492 29.7001 54.9 29.7001ZM83.3648 29.3401L70.7648 16.3081L83.1128 4.35609H87.5048L74.1848 17.1721V15.3001L87.8648 29.3401H83.3648ZM67.9208 29.3401V4.35609H71.3048V29.3401H67.9208ZM88.6902 29.3401L98.9142 4.35609H101.362L111.55 29.3401H107.878L99.4902 8.20809H100.75L92.2902 29.3401H88.6902ZM93.5502 23.6881V20.7361H106.69V23.6881H93.5502ZM115.311 29.3401V4.35609H117.687L118.695 8.28009V29.3401H115.311ZM132.591 29.3401L117.255 8.85609L117.687 4.35609L133.059 24.8041L132.591 29.3401ZM132.591 29.3401L131.583 25.6321V4.35609H134.967V29.3401H132.591ZM143.102 29.3401V26.2441H150.05C151.898 26.2441 153.518 25.8481 154.91 25.0561C156.302 24.2401 157.382 23.1241 158.15 21.7081C158.942 20.2921 159.338 18.6601 159.338 16.8121C159.338 14.9881 158.942 13.3681 158.15 11.9521C157.358 10.5361 156.266 9.43209 154.874 8.64009C153.482 7.84809 151.874 7.45209 150.05 7.45209H143.138V4.35609H150.122C151.946 4.35609 153.626 4.66809 155.162 5.29209C156.722 5.91609 158.066 6.79209 159.194 7.92009C160.346 9.04809 161.234 10.3681 161.858 11.8801C162.506 13.3921 162.83 15.0481 162.83 16.8481C162.83 18.6241 162.506 20.2801 161.858 21.8161C161.234 23.3281 160.358 24.6481 159.23 25.7761C158.102 26.9041 156.758 27.7801 155.198 28.4041C153.662 29.0281 151.994 29.3401 150.194 29.3401H143.102ZM140.87 29.3401V4.35609H144.254V29.3401H140.87Z" fill="white"/>
<defs>
<radialGradient id="paint0_radial_5_3" cx="0" cy="0" r="1" gradientUnits="userSpaceOnUse" gradientTransform="translate(14.1914 2.00013) rotate(90) scale(15.4941 18.6728)">
<stop offset="0.00777199" stop-color="#FBFBFA"/>
<stop offset="1" stop-color="white" stop-opacity="0.49"/>
</radialGradient>
</defs>
</svg>
